<?xml version="1.0" encoding="iso-8859-1"?>
<!-- Generator: Adobe Illustrator 19.0.0, SVG Export Plug-In . SVG Version: 6.00 Build 0)  -->
<svg version="1.1" id="Layer_1" xmlns="http://www.w3.org/2000/svg" xmlns:xlink="http://www.w3.org/1999/xlink" x="0px" y="0px"
	 viewBox="0 0 512 512" style="enable-background:new 0 0 512 512;" xml:space="preserve">
<path style="fill:#424242;" d="M310.604,512c-38.752,0-70.278-31.526-70.278-70.278V0h31.348v441.722
	c0,21.465,17.464,38.929,38.929,38.929s38.929-17.464,38.929-38.929v-23.274h31.348v23.273C380.881,480.474,349.355,512,310.604,512
	z"/>
<path style="fill:#B8002A;" d="M29.247,279.511C29.247,154.279,130.768,52.758,256,52.758s226.753,101.521,226.753,226.753H29.247z"
	/>
<g>
	<path style="fill:#DE0436;" d="M369.377,279.511H256V52.758C318.616,52.758,369.377,216.895,369.377,279.511z"/>
	<path style="fill:#DE0436;" d="M142.623,279.511H29.247C29.247,154.279,130.768,52.758,256,52.758
		C193.384,52.758,142.623,216.895,142.623,279.511z"/>
</g>
<g>
</g>
<g>
</g>
<g>
</g>
<g>
</g>
<g>
</g>
<g>
</g>
<g>
</g>
<g>
</g>
<g>
</g>
<g>
</g>
<g>
</g>
<g>
</g>
<g>
</g>
<g>
</g>
<g>
</g>
</svg>
