<svg xmlns="http://www.w3.org/2000/svg" height="1200" width="1600" version="1.1" xmlns:xlink="http://www.w3.org/1999/xlink" xmlns:svgjs="http://svgjs.com/svgjs"><rect fill="#ffffff" width="1600" height="1200"></rect><g><path d="M225.7 828.05C227.33 804.72 232.13 781.26 239.52 760.16 258.15 708 290.32 667.11 324.21 632.12 331.7 624.38 339.48 616.39 343.22 604.73 351.77 577.86 344.86 538.54 349.66 508.92 353.88 482.45 360.99 457.03 370.59 433.3 389.99 385.6 419.08 346.81 451.44 316.01 518.08 252.71 600.27 217.85 680.35 205.66 807.39 186.52 938.65 215.36 1054.25 290.32 1096.89 317.97 1133.47 361.62 1157.48 418.1 1183.59 479.44 1191.75 557.02 1172.74 623.21 1223.92 639.98 1276.44 660.56 1317.64 705.64 1352.78 744.17 1379.09 808.91 1374.29 871.69 1368.82 941.8 1321.38 979.29 1275.39 996.32 1085.56 1067.88 882.67 1061.59 687.46 1050.19 581.07 1043.9 474.68 1034.72 369.73 1010.48 321.91 999.34 269.58 981.12 242.4 926.34 228.19 897.77 223.39 862.65 225.7 828.05Z" fill="#fafafa" opacity="1" stroke-width="2" stroke="none"></path></g><g><path d="M1099.91 358.73C1105.77 368.16 1108.92 379.32 1108.92 391.18 1108.92 425.5 1081.04 453.38 1046.72 453.38 1012.4 453.38 984.52 425.5 984.52 391.18 984.52 356.87 1012.4 328.99 1046.72 328.99 1063.88 328.99 1079.46 335.85 1090.76 347.29" fill="#ffffff" opacity="1" stroke-width="2" stroke="none"></path><path d="M1099.91 358.73C1105.77 368.16 1108.92 379.32 1108.92 391.18 1108.92 425.5 1081.04 453.38 1046.72 453.38 1012.4 453.38 984.52 425.5 984.52 391.18 984.52 356.87 1012.4 328.99 1046.72 328.99 1063.88 328.99 1079.46 335.85 1090.76 347.29" stroke="#4f4f4f" stroke-width="2" stroke-linecap="round" stroke-linejoin="round" opacity="1" fill="none"></path><path d="M1108.06 329.84L1090.62 347.15 985.38 452.53" stroke="#4f4f4f" stroke-width="2" stroke-linecap="round" stroke-linejoin="round" opacity="1" fill="none"></path></g><g><path d="M513.48 893.18L265.88 893.51" stroke="#4f4f4f" stroke-width="2" stroke-linecap="round" stroke-linejoin="round" opacity="1" fill="none"></path></g><g><path d="M387.45 859.18L392.01 853.05C403.39 839.28 420.71 830.62 439.92 830.62 462.67 830.62 482.71 842.92 493.62 861.11 499.11 870.46 502.38 881.24 502.38 892.99H475.29L377.55 892.99C377.41 880.6 381.19 868.85 387.45 859.18Z" fill="#ffffff" stroke="#4f4f4f" stroke-width="2" stroke-linecap="round" stroke-linejoin="round" opacity="1"></path><path d="M229.04 835.73L236.69 825.37C256.03 802.15 285.15 787.46 317.71 787.46 356.31 787.46 390.08 808.19 408.55 839.14 417.9 854.94 423.33 873.27 423.33 892.99H377.59 212.23C212.18 871.94 218.45 852.27 229.04 835.73Z" fill="#ffffff" stroke="#4f4f4f" stroke-width="2" stroke-linecap="round" stroke-linejoin="round" opacity="1"></path></g><g><path d="M183.85 893.27H473.54" stroke="#4f4f4f" stroke-width="2" stroke-linecap="round" stroke-linejoin="round" opacity="1" fill="none"></path><path d="M490.28 893.27H682.93" stroke="#4f4f4f" stroke-width="2" stroke-linecap="round" stroke-linejoin="round" opacity="1" fill="none"></path><path d="M1136.11 938.74H1286.35C1298.87 938.74 1308.94 928.64 1308.94 916.06 1308.94 903.47 1298.87 893.37 1286.35 893.37" stroke="#4f4f4f" stroke-width="2" stroke-linecap="round" stroke-linejoin="round" opacity="1" fill="none"></path><path d="M951.16 970.4H1064.84C1082.2 970.4 1096.37 956.27 1096.37 938.74" stroke="#4f4f4f" stroke-width="2" stroke-linecap="round" stroke-linejoin="round" opacity="1" fill="none"></path><path d="M867.78 970.4H926.21" stroke="#4f4f4f" stroke-width="2" stroke-linecap="round" stroke-linejoin="round" opacity="1" fill="none"></path><path d="M1120.09 938.74H1022.12" stroke="#4f4f4f" stroke-width="2" stroke-linecap="round" stroke-linejoin="round" opacity="1" fill="none"></path><path d="M789.83 938.74H576.13" stroke="#4f4f4f" stroke-width="2" stroke-linecap="round" stroke-linejoin="round" opacity="1" fill="none"></path><path d="M557.44 938.74H530.74" stroke="#4f4f4f" stroke-width="2" stroke-linecap="round" stroke-linejoin="round" opacity="1" fill="none"></path><path d="M368.08 938.74H273.6" stroke="#4f4f4f" stroke-width="2" stroke-linecap="round" stroke-linejoin="round" opacity="1" fill="none"></path><path d="M385.54 938.74H494.8C503.74 938.74 510.82 945.96 510.82 954.83 510.82 963.8 503.63 970.91 494.8 970.91H439.66" stroke="#4f4f4f" stroke-width="2" stroke-linecap="round" stroke-linejoin="round" opacity="1" fill="none"></path><path d="M480.63 1003.19H425.49C416.55 1003.19 409.47 995.97 409.47 987.1 409.47 978.13 416.65 971.02 425.49 971.02" stroke="#4f4f4f" stroke-width="2" stroke-linecap="round" stroke-linejoin="round" opacity="1" fill="none"></path><path d="M496.34 1003.19H557.44" stroke="#4f4f4f" stroke-width="2" stroke-linecap="round" stroke-linejoin="round" opacity="1" fill="none"></path><path d="M576.13 1003.19H635.69" stroke="#4f4f4f" stroke-width="2" stroke-linecap="round" stroke-linejoin="round" opacity="1" fill="none"></path><path d="M699.98 893.27H1416.15" stroke="#4f4f4f" stroke-width="2" stroke-linecap="round" stroke-linejoin="round" opacity="1" fill="none"></path></g><g><path d="M476.72 249.42C473.86 249.42 471 249.59 468.05 250.13 481.64 256.75 490.94 270.61 490.94 286.62 490.94 308.97 472.79 327.13 450.43 327.13 442.12 327.13 434.34 324.62 427.72 320.15 435.14 339.82 454.37 353.86 476.54 353.86 505.34 353.86 528.77 330.44 528.77 301.64 528.77 272.85 505.52 249.42 476.72 249.42Z" fill="#ffffff" stroke="#4f4f4f" stroke-width="2" stroke-linecap="round" stroke-linejoin="round" opacity="1"></path></g><g><path d="M663.48 497.79C668.53 504.93 671.61 513.82 671.61 523.26 671.61 547.74 651.85 567.5 627.36 567.5 625.28 567.5 623.08 567.28 621 567.17 629.12 578.7 642.29 586.06 657.23 586.06 681.71 586.06 701.47 566.3 701.47 541.81 701.58 519.42 685 500.97 663.48 497.79Z" fill="#ffffff" stroke="#4f4f4f" stroke-width="2" stroke-linecap="round" stroke-linejoin="round" opacity="1"></path><path d="M850.12 500.97C862.3 500.97 872.18 491.09 872.18 478.91 872.18 466.72 862.3 456.84 850.12 456.84 837.93 456.84 828.05 466.72 828.05 478.91 828.05 491.09 837.93 500.97 850.12 500.97Z" fill="#ffffff" stroke="#4f4f4f" stroke-width="2" stroke-linecap="round" stroke-linejoin="round" opacity="1"></path><path d="M798.52 641.17C807.67 641.17 815.1 633.75 815.1 624.59 815.1 615.44 807.67 608.01 798.52 608.01 789.36 608.01 781.94 615.44 781.94 624.59 781.94 633.75 789.36 641.17 798.52 641.17Z" fill="#ffffff" stroke="#4f4f4f" stroke-width="2" stroke-linecap="round" stroke-linejoin="round" opacity="1"></path><path d="M662.6 729.44C682.07 729.44 697.85 713.66 697.85 694.2 697.85 674.73 682.07 658.95 662.6 658.95 643.14 658.95 627.36 674.73 627.36 694.2 627.36 713.66 643.14 729.44 662.6 729.44Z" fill="#ffffff" stroke="#4f4f4f" stroke-width="2" stroke-linecap="round" stroke-linejoin="round" opacity="1"></path><path d="M935.86 789.16C968.78 789.16 995.47 762.47 995.47 729.55 995.47 696.62 968.78 669.93 935.86 669.93 902.93 669.93 876.25 696.62 876.25 729.55 876.25 762.47 902.93 789.16 935.86 789.16Z" fill="#ffffff" stroke="#4f4f4f" stroke-width="2" stroke-linecap="round" stroke-linejoin="round" opacity="1"></path><path d="M906.11 740.52H868.56C862.52 740.52 857.58 735.58 857.58 729.55 857.58 723.51 862.52 718.57 868.56 718.57H877.23" stroke="#4f4f4f" stroke-width="2" stroke-linecap="round" stroke-linejoin="round" opacity="1" fill="none"></path><path d="M994.26 718.46H1002.94C1008.97 718.46 1013.92 723.4 1013.92 729.44 1013.92 735.47 1008.97 740.41 1002.94 740.41H917.52" stroke="#4f4f4f" stroke-width="2" stroke-linecap="round" stroke-linejoin="round" opacity="1" fill="none"></path><path d="M682.59 453.66L698.61 469.69" stroke="#4f4f4f" stroke-width="2" stroke-linecap="round" stroke-linejoin="round" opacity="1" fill="none"></path><path d="M698.61 453.66L682.59 469.69" stroke="#4f4f4f" stroke-width="2" stroke-linecap="round" stroke-linejoin="round" opacity="1" fill="none"></path><path d="M741.32 410.84L706.08 446.3" stroke="#4f4f4f" stroke-width="2" stroke-linecap="round" stroke-linejoin="round" opacity="1" fill="none"></path><path d="M878.22 625.58L894.25 641.61" stroke="#4f4f4f" stroke-width="2" stroke-linecap="round" stroke-linejoin="round" opacity="1" fill="none"></path><path d="M894.25 625.58L878.22 641.61" stroke="#4f4f4f" stroke-width="2" stroke-linecap="round" stroke-linejoin="round" opacity="1" fill="none"></path><path d="M756.58 567.72L772.61 583.75" stroke="#4f4f4f" stroke-width="2" stroke-linecap="round" stroke-linejoin="round" opacity="1" fill="none"></path><path d="M772.61 567.72L756.58 583.75" stroke="#4f4f4f" stroke-width="2" stroke-linecap="round" stroke-linejoin="round" opacity="1" fill="none"></path><path d="M586.08 623.27L602.11 639.52" stroke="#4f4f4f" stroke-width="2" stroke-linecap="round" stroke-linejoin="round" opacity="1" fill="none"></path><path d="M602.11 623.27L586.08 639.52" stroke="#4f4f4f" stroke-width="2" stroke-linecap="round" stroke-linejoin="round" opacity="1" fill="none"></path><path d="M727.05 695.51L743.08 711.54" stroke="#4f4f4f" stroke-width="2" stroke-linecap="round" stroke-linejoin="round" opacity="1" fill="none"></path><path d="M743.08 695.51L727.05 711.54" stroke="#4f4f4f" stroke-width="2" stroke-linecap="round" stroke-linejoin="round" opacity="1" fill="none"></path><path d="M946.62 559.6L962.65 575.63" stroke="#4f4f4f" stroke-width="2" stroke-linecap="round" stroke-linejoin="round" opacity="1" fill="none"></path><path d="M962.65 559.6L946.62 575.63" stroke="#4f4f4f" stroke-width="2" stroke-linecap="round" stroke-linejoin="round" opacity="1" fill="none"></path><path d="M1005.68 516.78L970.22 552.02" stroke="#4f4f4f" stroke-width="2" stroke-linecap="round" stroke-linejoin="round" opacity="1" fill="none"></path></g><g><path d="M1136.74 174.54L1130.78 168.82 1158.68 164.52 1171.09 139.48 1183.73 164.52 1211.64 168.82 1191.12 188.61 1196.13 216.52 1171.09 203.16 1146.04 216.52 1150.81 188.61 1148.19 185.99 1146.76 184.32 1143.18 180.98" fill="#ffffff" opacity="1" stroke-width="2" stroke="none"></path><path d="M1136.74 174.54L1130.78 168.82 1158.68 164.52 1171.09 139.48 1183.73 164.52 1211.64 168.82 1191.12 188.61 1196.13 216.52 1171.09 203.16 1146.04 216.52 1150.81 188.61 1148.19 185.99 1146.76 184.32 1143.18 180.98" stroke="#4f4f4f" stroke-width="2" stroke-linecap="round" stroke-linejoin="round" opacity="1" fill="none"></path></g><g><path d="M1164.78 861.15L1160.51 855.42C1149.87 842.54 1133.68 834.44 1115.72 834.44 1094.44 834.44 1075.7 845.94 1065.49 862.95 1060.37 871.7 1057.31 881.78 1057.31 892.76H1082.64 1174.04C1174.17 881.17 1170.63 870.19 1164.78 861.15Z" fill="#ffffff" stroke="#4f4f4f" stroke-width="2" stroke-linecap="round" stroke-linejoin="round" opacity="1"></path><path d="M1312.91 839.22L1305.76 829.53C1287.67 807.82 1260.44 794.08 1229.99 794.08 1193.89 794.08 1162.32 813.46 1145.05 842.41 1136.31 857.18 1131.22 874.33 1131.22 892.76H1173.99 1328.63C1328.67 873.08 1322.81 854.68 1312.91 839.22Z" fill="#ffffff" stroke="#4f4f4f" stroke-width="2" stroke-linecap="round" stroke-linejoin="round" opacity="1"></path></g></svg>