<svg id="visual" viewBox="0 0 1920 1080" width="1920" height="1080" xmlns="http://www.w3.org/2000/svg" xmlns:xlink="http://www.w3.org/1999/xlink" version="1.1"><rect x="0" y="0" width="1920" height="1080" fill="#001220"></rect><path d="M0 709L45.7 700.2C91.3 691.3 182.7 673.7 274.2 680.2C365.7 686.7 457.3 717.3 548.8 738.8C640.3 760.3 731.7 772.7 823 755.3C914.3 738 1005.7 691 1097 676.8C1188.3 662.7 1279.7 681.3 1371.2 683.2C1462.7 685 1554.3 670 1645.8 665.3C1737.3 660.7 1828.7 666.3 1874.3 669.2L1920 672L1920 1081L1874.3 1081C1828.7 1081 1737.3 1081 1645.8 1081C1554.3 1081 1462.7 1081 1371.2 1081C1279.7 1081 1188.3 1081 1097 1081C1005.7 1081 914.3 1081 823 1081C731.7 1081 640.3 1081 548.8 1081C457.3 1081 365.7 1081 274.2 1081C182.7 1081 91.3 1081 45.7 1081L0 1081Z" fill="#fa7268"></path><path d="M0 844L45.7 845.8C91.3 847.7 182.7 851.3 274.2 829C365.7 806.7 457.3 758.3 548.8 736C640.3 713.7 731.7 717.3 823 736.7C914.3 756 1005.7 791 1097 801.2C1188.3 811.3 1279.7 796.7 1371.2 792.3C1462.7 788 1554.3 794 1645.8 802C1737.3 810 1828.7 820 1874.3 825L1920 830L1920 1081L1874.3 1081C1828.7 1081 1737.3 1081 1645.8 1081C1554.3 1081 1462.7 1081 1371.2 1081C1279.7 1081 1188.3 1081 1097 1081C1005.7 1081 914.3 1081 823 1081C731.7 1081 640.3 1081 548.8 1081C457.3 1081 365.7 1081 274.2 1081C182.7 1081 91.3 1081 45.7 1081L0 1081Z" fill="#ef5f67"></path><path d="M0 846L45.7 856.3C91.3 866.7 182.7 887.3 274.2 882.8C365.7 878.3 457.3 848.7 548.8 831.7C640.3 814.7 731.7 810.3 823 813.5C914.3 816.7 1005.7 827.3 1097 832.7C1188.3 838 1279.7 838 1371.2 847C1462.7 856 1554.3 874 1645.8 880.7C1737.3 887.3 1828.7 882.7 1874.3 880.3L1920 878L1920 1081L1874.3 1081C1828.7 1081 1737.3 1081 1645.8 1081C1554.3 1081 1462.7 1081 1371.2 1081C1279.7 1081 1188.3 1081 1097 1081C1005.7 1081 914.3 1081 823 1081C731.7 1081 640.3 1081 548.8 1081C457.3 1081 365.7 1081 274.2 1081C182.7 1081 91.3 1081 45.7 1081L0 1081Z" fill="#e34c67"></path><path d="M0 869L45.7 883.3C91.3 897.7 182.7 926.3 274.2 938.3C365.7 950.3 457.3 945.7 548.8 932C640.3 918.3 731.7 895.7 823 897.7C914.3 899.7 1005.7 926.3 1097 937.2C1188.3 948 1279.7 943 1371.2 931.8C1462.7 920.7 1554.3 903.3 1645.8 891.3C1737.3 879.3 1828.7 872.7 1874.3 869.3L1920 866L1920 1081L1874.3 1081C1828.7 1081 1737.3 1081 1645.8 1081C1554.3 1081 1462.7 1081 1371.2 1081C1279.7 1081 1188.3 1081 1097 1081C1005.7 1081 914.3 1081 823 1081C731.7 1081 640.3 1081 548.8 1081C457.3 1081 365.7 1081 274.2 1081C182.7 1081 91.3 1081 45.7 1081L0 1081Z" fill="#d53867"></path><path d="M0 1000L45.7 997C91.3 994 182.7 988 274.2 982.5C365.7 977 457.3 972 548.8 968.8C640.3 965.7 731.7 964.3 823 973.2C914.3 982 1005.7 1001 1097 1005.2C1188.3 1009.3 1279.7 998.7 1371.2 996.5C1462.7 994.3 1554.3 1000.7 1645.8 1004.3C1737.3 1008 1828.7 1009 1874.3 1009.5L1920 1010L1920 1081L1874.3 1081C1828.7 1081 1737.3 1081 1645.8 1081C1554.3 1081 1462.7 1081 1371.2 1081C1279.7 1081 1188.3 1081 1097 1081C1005.7 1081 914.3 1081 823 1081C731.7 1081 640.3 1081 548.8 1081C457.3 1081 365.7 1081 274.2 1081C182.7 1081 91.3 1081 45.7 1081L0 1081Z" fill="#c62368"></path></svg>